<?xml version="1.0" encoding="utf-8"?>
<!-- Generator: Adobe Illustrator 15.1.0, SVG Export Plug-In . SVG Version: 6.00 Build 0)  -->
<!DOCTYPE svg PUBLIC "-//W3C//DTD SVG 1.1//EN" "http://www.w3.org/Graphics/SVG/1.1/DTD/svg11.dtd">
<svg version="1.1" id="Layer_1" xmlns="http://www.w3.org/2000/svg" xmlns:xlink="http://www.w3.org/1999/xlink" x="0px" y="0px"
	 viewBox="0 0 144 109.259" enable-background="new 0 0 144 109.259" xml:space="preserve">
<path fill="#262626" d="M15.553,96.573c-1.569,1.57-3.863,2.229-7.1,2.229H5.125l0.126-17.511h3.358c2.953,0,5.027,0.278,6.85,1.881
	c1.571,1.383,2.545,3.638,2.545,6.559C18.004,92.778,17.03,95.097,15.553,96.573 M9.866,79.05H0v2.241h2.416L2.29,98.802H0v2.242
	h8.799c7.414,0,12.096-3.582,12.096-11.312C20.895,82.443,16.434,79.05,9.866,79.05"/>
<path fill="#262626" d="M63.709,94.932c0-2.701,0.062-5.135,0.125-7.883h5.098v-2.243h-5.064l0.125-4.104l-2.711,0.151l0.009,3.953
	h-2.582v2.243h2.55c-0.031,2.404-0.125,7.066-0.125,9.045c0,2.074,0,5.317,4.523,5.317c1.32,0,2.828-0.342,3.645-0.751l0.096-2.306
	c-0.693,0.281-1.886,0.652-3.205,0.652C63.709,99.007,63.709,97.257,63.709,94.932"/>
<path fill="#262626" d="M77.291,99.439c-1.666,0-3.047-0.976-3.047-2.797c0-3.047,3.831-3.047,7.664-3.047
	C81.908,97.754,78.962,99.439,77.291,99.439 M84.393,90.298c0-4.304-2.248-5.845-6.427-5.845c-1.979,0-3.901,0.533-5.705,1.255
	v3.908h2.453v-2.525c1.203-0.503,2.603-0.593,3.515-0.593c2.545,0,3.742,1.273,3.742,4.144v1.162
	c-5.855,0-10.289,0.085-10.289,4.966c0,3.957,3.166,4.647,5.02,4.647c2.859,0,4.453-1.318,5.429-3.896h0.063
	c-0.127,0.601-0.31,1.918-0.31,2.859v0.662h4.21V98.8h-1.756C84.338,95.88,84.393,91.711,84.393,90.298"/>
<path fill="#262626" d="M95.041,91.615c-2.389-0.408-3.927-0.942-3.927-2.702c0-1.593,2.429-2.415,3.706-2.415
	c0.754,0,2.262,0.047,2.859,0.548l0.059,2.313h2.393l-0.127-3.915c-1.256-0.535-3.77-0.983-5.121-0.983
	c-4.649,0-6.377,2.258-6.377,4.865c0,3.174,2.166,3.925,6.502,4.868c1.761,0.378,3.393,0.94,3.393,2.543
	c0,1.802-2.186,2.603-3.706,2.603c-1.067,0-2.702-0.141-3.675-0.612l-0.061-2.409h-2.391l0.125,4.137
	c1.006,0.535,3.803,0.969,5.562,0.969c4.681,0,6.629-2.297,6.629-5.187C100.885,93.566,99.156,92.306,95.041,91.615"/>
<polygon fill="#262626" points="102.977,79.05 102.977,81.291 105.465,81.291 105.34,98.802 102.977,98.802 102.977,101.043 
	117.942,101.043 117.961,95.631 115.521,95.631 115.418,98.802 108.174,98.802 108.301,81.291 110.537,81.291 110.537,79.05 "/>
<path fill="#262626" d="M125.287,98.935h-2.043l0.062-8.135h2.641c2.607,0,5.779,0.473,5.779,4.116
	C131.727,99.032,127.957,98.935,125.287,98.935 M123.37,81.158h2.671c1.444,0,4.428-0.132,4.428,3.638
	c0,3.331-2.826,3.896-5.59,3.896h-1.572L123.37,81.158z M128.9,89.511v-0.063c2.406-0.408,4.275-2.136,4.275-5.058
	c0-2.294-1.102-3.864-2.768-4.65c-1.255-0.597-2.451-0.69-4.589-0.69h-7.657v2.242h2.473l-0.188,19.752h6.379
	c3.928,0,7.793-1.415,7.793-6.128C134.619,91.365,131.736,89.479,128.9,89.511"/>
<polygon fill="#262626" points="28.651,84.806 23.516,84.806 23.516,87.047 26.075,87.047 25.948,98.801 23.772,98.801 
	23.772,101.044 30.646,101.044 30.646,98.801 28.526,98.801 "/>
<path fill="#262626" d="M40.338,107.198c-1.588,0-5.354-0.243-5.354-2.734c0-2.115,3.206-2.819,3.519-2.819l4.297,0.557
	c1.432,0.218,2.738,0.488,2.738,1.921C45.537,106.352,42.33,107.198,40.338,107.198 M35.45,90.485c0-2.366,1.837-3.692,4.358-3.692
	c3.082,0,4.266,2.042,4.266,3.6c0,2.24-1.744,3.98-4.482,3.98C37.35,94.373,35.45,92.728,35.45,90.485 M43.764,99.981l-4.297-0.716
	c-2.023-0.312-2.506-0.529-2.506-1.34c0-1.151,1.977-1.559,2.631-1.559c3.767,0,6.787-2.115,6.787-5.696
	c0-1.116-0.201-2.334-1.164-3.472c-0.156-0.184-0.235-0.276-0.365-0.41l2.731,0.376v-2.358l-5.76,0.115l0.007,0.012
	c-0.619-0.183-1.33-0.303-2.143-0.303c-3.924,0-6.646,2.491-6.646,5.822c0,4.079,2.937,5.169,4.067,5.418v0.063
	c-1.374,0.342-2.936,0.777-2.936,2.427c0,1.495,1.158,2.211,2.451,2.492v0.062c-2.101,0.467-4.059,1.525-4.059,3.955
	c0,3.144,3.794,4.389,7.654,4.389c4.018,0,7.875-1.681,7.875-5.386C48.094,101.289,46.256,100.387,43.764,99.981"/>
<path fill="#262626" d="M27.041,78.94c-1.092,0-1.98,0.889-1.98,1.981c0,1.091,0.889,1.979,1.98,1.979
	c1.094,0,1.98-0.889,1.98-1.979C29.021,79.829,28.135,78.94,27.041,78.94"/>
<polygon fill="#262626" points="55.147,84.806 50.011,84.806 50.011,87.047 52.572,87.047 52.445,98.801 50.269,98.801 
	50.269,101.044 57.142,101.044 57.142,98.801 55.022,98.801 "/>
<path fill="#262626" d="M53.537,78.94c-1.092,0-1.98,0.889-1.98,1.981c0,1.091,0.889,1.979,1.98,1.979s1.98-0.889,1.98-1.979
	C55.518,79.829,54.629,78.94,53.537,78.94"/>
<polygon fill="#262626" points="136.871,84.804 136.871,87.047 139.432,87.047 139.305,98.8 137.127,98.8 137.127,101.043 
	144,101.043 144,98.8 141.881,98.8 142.006,84.804 "/>
<path fill="#262626" d="M140.397,78.939c-1.093,0-1.981,0.889-1.981,1.981c0,1.092,0.889,1.98,1.981,1.98s1.979-0.889,1.979-1.98
	C142.377,79.828,141.49,78.939,140.397,78.939"/>
<path fill="#ED1C27" d="M72,0C52.557,0,36.799,15.763,36.799,35.207c0,19.445,15.758,35.208,35.201,35.208
	c19.442,0,35.203-15.763,35.203-35.208C107.203,15.763,91.442,0,72,0z M77.757,42.214l-6.363,12.117l-5.44-12.442l-11.194-6.842
	l11.479-4.973l5.771-13.99l5.748,14.618l11.485,6.217L77.757,42.214z"/>
</svg>
